<svg width="40" height="39" xmlns="http://www.w3.org/2000/svg"><path d="M35.609 28.632c.83.823 1.265 1.801 1.265 2.82 0 1.012-.427 1.999-1.24 2.846-.354.37-.716.723-1.07 1.06-.517.502-1.01.97-1.438 1.489-.008.016-.025.024-.033.04-1.25 1.357-2.844 2.04-4.743 2.04-.165 0-.345-.008-.518-.017-2.82-.18-5.343-1.241-7.234-2.137-4.949-2.393-9.281-5.789-12.882-10.09-2.967-3.568-4.957-6.898-6.288-10.491-.543-1.464-1.25-3.7-1.053-6.101A6.017 6.017 0 0 1 2.16 6.267l2.795-2.82.017-.017c.822-.79 1.792-1.209 2.795-1.209s1.956.42 2.754 1.21c.534.493 1.052 1.019 1.545 1.529.247.263.51.526.764.78l2.245 2.245c1.726 1.727 1.726 3.964 0 5.69-.23.23-.46.469-.69.7-.61.616-1.234 1.257-1.908 1.874.501 1.11 1.192 2.204 2.22 3.503 2.12 2.607 4.332 4.621 6.765 6.167.238.148.518.288.814.436.205.106.42.213.633.328l2.598-2.59c.83-.83 1.8-1.266 2.811-1.266 1.02 0 1.981.444 2.778 1.275zm-1.579 1.554l-4.53-4.53-.016-.017c-.255-.28-.674-.6-1.184-.6-.517 0-.961.337-1.24.617l-2.812 2.812c-.14.14-.567.567-1.25.567-.271 0-.534-.066-.814-.205-.032-.017-.065-.042-.098-.058-.239-.148-.518-.288-.814-.436-.329-.164-.674-.337-1.011-.55-2.639-1.67-5.031-3.849-7.3-6.644l-.008-.009c-1.25-1.586-2.072-2.919-2.655-4.333l-.025-.074c-.148-.469-.28-1.16.427-1.866.009-.017.025-.025.041-.041a42.75 42.75 0 0 0 2.064-2.007c.238-.23.468-.468.707-.707.871-.872.871-1.677 0-2.549l-2.244-2.245c-.263-.271-.527-.534-.781-.797a41.407 41.407 0 0 0-1.48-1.472l-.025-.025c-.263-.263-.682-.575-1.2-.575-.42 0-.847.205-1.25.584L3.73 7.829a3.775 3.775 0 0 0-1.134 2.442c-.123 1.505.156 3.1.92 5.148 1.242 3.354 3.116 6.48 5.92 9.858 3.394 4.054 7.48 7.253 12.133 9.506 1.702.814 3.97 1.767 6.412 1.924.123.008.255.008.378.008 1.282 0 2.26-.42 3.09-1.308.51-.6 1.053-1.134 1.587-1.644.354-.345.683-.658 1.003-1.003-.008.008-.008 0 0 0 .839-.871.839-1.735-.008-2.574zM20.466 7.953c.107-.6.674-1.004 1.283-.905a12.679 12.679 0 0 1 6.864 3.56 12.684 12.684 0 0 1 3.56 6.866 1.11 1.11 0 0 1-.913 1.283c-.066.008-.124.016-.19.016a1.103 1.103 0 0 1-1.092-.92 10.483 10.483 0 0 0-2.943-5.674 10.425 10.425 0 0 0-5.673-2.944 1.098 1.098 0 0 1-.896-1.282zM38.313 18.42c-.066.008-.123.016-.189.016a1.103 1.103 0 0 1-1.093-.92c-.65-3.832-2.458-7.327-5.237-10.106-2.778-2.771-6.272-4.588-10.103-5.238A1.116 1.116 0 0 1 20.78.89c.107-.6.674-1.01 1.274-.904 4.291.732 8.196 2.755 11.303 5.863 3.107 3.108 5.13 7.013 5.861 11.305a1.09 1.09 0 0 1-.904 1.267z" fill="#fff"/></svg>