<svg xmlns="http://www.w3.org/2000/svg" width="23" height="25"><path fill="#c99065" d="M18.39 7.63a3.86 3.86 0 0 1-2.72-1.116L8.016 10.91a3.768 3.768 0 0 1 .015 2.733l7.554 4.714a3.86 3.86 0 0 1 2.806-1.204c2.125 0 3.854 1.713 3.854 3.817 0 2.103-1.729 3.815-3.854 3.815s-3.853-1.712-3.853-3.815c0-.453.08-.89.227-1.293L7.192 14.95a3.86 3.86 0 0 1-2.766 1.162c-2.125 0-3.854-1.711-3.854-3.816 0-2.104 1.73-3.815 3.854-3.815A3.86 3.86 0 0 1 7.16 9.61l7.647-4.392a3.762 3.762 0 0 1-.27-1.403C14.538 1.71 16.268 0 18.392 0c2.125 0 3.854 1.711 3.854 3.816 0 2.103-1.729 3.815-3.854 3.815zm0-6.082c-1.261 0-2.288 1.017-2.288 2.267s1.027 2.266 2.289 2.266c1.263 0 2.29-1.017 2.29-2.266 0-1.25-1.027-2.267-2.29-2.267zM4.427 10.03c-1.262 0-2.29 1.016-2.29 2.266s1.028 2.267 2.29 2.267c.778 0 1.468-.387 1.881-.977a.779.779 0 0 1 .098-.153 2.237 2.237 0 0 0 .027-2.227.773.773 0 0 1-.221-.327 2.294 2.294 0 0 0-1.785-.85zm13.965 8.673c-.78 0-1.47.388-1.883.98a.775.775 0 0 1-.137.22 2.24 2.24 0 0 0-.269 1.067c0 1.25 1.027 2.266 2.289 2.266 1.263 0 2.29-1.016 2.29-2.266s-1.027-2.267-2.29-2.267z"/><path fill="#bebebe" d="M18.39 7.63a3.86 3.86 0 0 1-2.72-1.116L8.016 10.91a3.768 3.768 0 0 1 .015 2.733l7.554 4.714a3.86 3.86 0 0 1 2.806-1.204c2.125 0 3.854 1.713 3.854 3.817 0 2.103-1.729 3.815-3.854 3.815s-3.853-1.712-3.853-3.815c0-.453.08-.89.227-1.293L7.192 14.95a3.86 3.86 0 0 1-2.766 1.162c-2.125 0-3.854-1.711-3.854-3.816 0-2.104 1.73-3.815 3.854-3.815A3.86 3.86 0 0 1 7.16 9.61l7.647-4.392a3.762 3.762 0 0 1-.27-1.403C14.538 1.71 16.268 0 18.392 0c2.125 0 3.854 1.711 3.854 3.816 0 2.103-1.729 3.815-3.854 3.815zm0-6.082c-1.261 0-2.288 1.017-2.288 2.267s1.027 2.266 2.289 2.266c1.263 0 2.29-1.017 2.29-2.266 0-1.25-1.027-2.267-2.29-2.267zM4.427 10.03c-1.262 0-2.29 1.016-2.29 2.266s1.028 2.267 2.29 2.267c.778 0 1.468-.387 1.881-.977a.779.779 0 0 1 .098-.153 2.237 2.237 0 0 0 .027-2.227.773.773 0 0 1-.221-.327 2.294 2.294 0 0 0-1.785-.85zm13.965 8.673c-.78 0-1.47.388-1.883.98a.775.775 0 0 1-.137.22 2.24 2.24 0 0 0-.269 1.067c0 1.25 1.027 2.266 2.289 2.266 1.263 0 2.29-1.016 2.29-2.266s-1.027-2.267-2.29-2.267z"/></svg>