<?xml version="1.0" encoding="UTF-8"?>
<svg id="SVGDoc" width="58" height="58" 
	xmlns="http://www.w3.org/2000/svg" version="1.1" 
	xmlns:xlink="http://www.w3.org/1999/xlink" 
	xmlns:avocode="https://avocode.com/" viewBox="0 0 58 58">
	<defs></defs>
	<desc>Generated with Avocode.</desc>
	<g>
		<g>
			<title>Support</title>
			<path d="M29.17583,50.77082c-1.84908,0 -3.65171,-0.16678 -5.40447,-0.45787l-12.66699,7.68665v-12.79635c-6.60439,-4.63651 -10.84299,-11.7471 -10.84299,-19.73316c0,-13.97211 12.94556,-25.29942 28.91445,-25.29942c15.9688,0 28.91436,11.32731 28.91436,25.29942c0,13.97386 -12.94556,25.30073 -28.91436,25.30073zM29.17583,3.7855c-13.97285,0 -25.30012,9.70856 -25.30012,21.68459c0,7.34916 4.27504,13.8316 10.79798,17.75416l-0.11406,8.38265l8.50735,-5.11364c1.95971,0.41673 3.99837,0.66361 6.10886,0.66361c13.97276,0 25.29993,-9.709 25.29993,-21.68678c0,-11.97603 -11.32717,-21.68459 -25.29993,-21.68459zM43.63306,29.08535c-1.99614,0 -3.61443,-1.61831 -3.61443,-3.61527c0,-1.99608 1.61829,-3.61395 3.61443,-3.61395c1.99604,0 3.61414,1.61787 3.61414,3.61395c0,1.99695 -1.6181,3.61527 -3.61414,3.61527zM29.17583,29.08535c-1.99623,0 -3.61433,-1.61831 -3.61433,-3.61527c0,-1.99608 1.6181,-3.61395 3.61433,-3.61395c1.99614,0 3.61423,1.61787 3.61423,3.61395c0,1.99695 -1.6181,3.61527 -3.61423,3.61527zM14.7187,29.08535c-1.99623,0 -3.61433,-1.61831 -3.61433,-3.61527c0,-1.99608 1.6181,-3.61395 3.61433,-3.61395c1.99604,0 3.61423,1.61787 3.61423,3.61395c0,1.99695 -1.61819,3.61527 -3.61423,3.61527z" fill="#b88b58" fill-opacity="1"></path>
		</g>
	</g>
</svg>